<?xml version="1.0" encoding="utf-8"?>
<!-- Generator: Adobe Illustrator 21.0.0, SVG Export Plug-In . SVG Version: 6.00 Build 0)  -->
<svg version="1.1" id="Layer_1" xmlns="http://www.w3.org/2000/svg" xmlns:xlink="http://www.w3.org/1999/xlink" x="0px" y="0px"
	 viewBox="0 0 100 100" enable-background="new 0 0 100 100" xml:space="preserve">
<g>
	<path fill="#9D1F60" d="M50,33c24.8,0,42,9,42,17c0,4-4.2,8.2-11.4,11.4C72.5,65,61.6,67,50,67C25.2,67,8,58,8,50
		c0-4,4.2-8.2,11.4-11.4C27.5,35,38.4,33,50,33 M50,30C25.1,30,5,39,5,50s20.1,20,45,20s45-9,45-20S74.9,30,50,30L50,30z"/>
</g>
<g>
	<path fill="#9D1F60" d="M67.5,9.8v3c1.3,0,2.5,0.3,3.5,0.9c3.5,2,5,7.7,4.2,15.6c-0.9,8.8-4.6,19.2-10.5,29.3
		C53.8,77.4,40.3,87.2,32.5,87.2c-1.3,0-2.5-0.3-3.5-0.9c-3.5-2-5-7.7-4.2-15.6c0.9-8.8,4.6-19.2,10.5-29.3
		c10.9-18.9,24.4-28.7,32.2-28.7L67.5,9.8 M67.5,9.8c-10,0-24.3,12.1-34.8,30.2c-12.4,21.5-14.7,43.4-5.2,49c1.5,0.9,3.2,1.3,5,1.3
		c10,0,24.3-12.1,34.8-30.2c12.4-21.5,14.7-43.4,5.2-49C71,10.2,69.3,9.8,67.5,9.8L67.5,9.8z"/>
</g>
<g>
	<path fill="#9D1F60" d="M32.5,12.8L32.5,12.8c7.8,0,21.3,9.9,32.2,28.7C77.1,62.9,78,82.4,71,86.4c-1,0.6-2.2,0.9-3.5,0.9
		c-7.8,0-21.3-9.9-32.2-28.7C22.9,37.1,22,17.6,29,13.6C30,13,31.2,12.8,32.5,12.8 M32.5,9.8c-1.8,0-3.5,0.4-5,1.3
		c-9.6,5.5-7.2,27.4,5.2,49c10.5,18.2,24.8,30.2,34.8,30.2c1.8,0,3.5-0.4,5-1.3c9.6-5.5,7.2-27.4-5.2-49
		C56.8,21.8,42.5,9.8,32.5,9.8L32.5,9.8z"/>
</g>
<g>
	<circle fill="#FBB03A" cx="50" cy="50" r="10"/>
</g>
</svg>
